<svg xmlns="http://www.w3.org/2000/svg" width="129.418" height="41.177" viewBox="0 0 129.418 41.177">
  <g id="_129" data-name="129" transform="translate(0.134)">
    <g id="_2499939398128" transform="translate(-0.133)">
      <path id="Path_367" data-name="Path 367" d="M1217.512,3755.432c-.118.131-.28.312-.473.536s-.342.405-.436.529c-.965.069-1.812.107-2.541.107a12.333,12.333,0,0,1-1.893-.137,4.858,4.858,0,0,1-1.433-.43,1.2,1.2,0,0,1-.7-.7,1.249,1.249,0,0,1,.162-.91,3.049,3.049,0,0,1,1.009-1.059,6.49,6.49,0,0,1,1.688-.779,11.263,11.263,0,0,1,2.049-.449,15.935,15.935,0,0,1,2.1-.137c.648,0,1.414.043,2.317.125l-.131.274c-.056.118-.112.249-.174.392l-.156.368c-.474-.062-.86-.1-1.165-.124s-.592-.031-.859-.031a8.07,8.07,0,0,0-1.676.175,4.836,4.836,0,0,0-1.377.51,2.066,2.066,0,0,0-.81.741.561.561,0,0,0,0,.635,1.312,1.312,0,0,0,.691.411,5.182,5.182,0,0,0,1.345.143q.458,0,1.028-.037T1217.512,3755.432Zm-27.748-.025c1.507,0,1.856,2.666-1.214,2.573l.074-.33a1.083,1.083,0,0,0,1.152-.747h-.012a.771.771,0,1,1,0-1.495ZM1123,3756.516q.617-.84.99-1.4c.255-.374.573-.878.959-1.5s.635-1.041.747-1.24l.149-.287c1.022,0,2.261.006,3.713.006,1.339,0,2.522-.006,3.55-.006l-.075.106c-.012.025-.075.118-.181.28l-.231.355c-.05.075-.093.15-.137.23-.828-.019-1.526-.024-2.093-.024h-1.271c-.218,0-.561.006-1.034.012l-.48.748c.511.006,1.1.006,1.788.006.243,0,.891-.006,1.949-.018q-.289.411-.654.99c-.747-.006-1.327-.012-1.731-.012-.6,0-1.271.012-2.024.025l-.5.791h.754c.218,0,.679-.006,1.376-.012l1.358-.012c.2-.007.536-.012,1.015-.031-.224.324-.448.654-.666,1-1.059-.006-2.217-.006-3.476-.006l-2.871.006Zm8.726,0c.386-.51.692-.928.91-1.252.411-.586.791-1.171,1.152-1.75s.642-1.059.841-1.427c.586,0,1.109.006,1.564.006.305,0,.754-.006,1.333-.006l-.791,1.171-1.183,1.837-.274.455c.741.006,1.227.006,1.457.006,1.14,0,2.006-.006,2.6-.018l-.672.978c-1.14-.006-2.224-.006-3.258-.006C1134.006,3756.51,1132.785,3756.51,1131.726,3756.516Zm7.873,0c.411-.56.741-1.028,1-1.4s.573-.878.959-1.5.635-1.041.741-1.24l.15-.287c1.021,0,2.261.006,3.712.006,1.339,0,2.523-.006,3.55-.006l-.069.106c-.019.025-.081.118-.187.28l-.23.355c-.05.075-.093.15-.137.23-.828-.019-1.526-.024-2.093-.024h-1.271c-.218,0-.561.006-1.028.012l-.479.748c.5.006,1.1.006,1.781.006.243,0,.9-.006,1.956-.018-.193.274-.411.6-.66.99-.747-.006-1.32-.012-1.725-.012-.6,0-1.277.012-2.024.025l-.5.791h.747c.224,0,.685-.006,1.383-.012l1.352-.012c.2-.007.542-.012,1.015-.031-.224.324-.449.654-.667,1-1.053-.006-2.211-.006-3.476-.006l-2.865.006Zm17.072-1.084c-.118.131-.28.312-.473.536s-.343.405-.436.529c-.965.069-1.812.107-2.541.107a12.34,12.34,0,0,1-1.894-.137,4.925,4.925,0,0,1-1.432-.43,1.205,1.205,0,0,1-.7-.7,1.228,1.228,0,0,1,.168-.91,2.94,2.94,0,0,1,1.009-1.059,6.354,6.354,0,0,1,1.682-.779,11.265,11.265,0,0,1,2.049-.449,15.951,15.951,0,0,1,2.1-.137c.642,0,1.414.043,2.311.125l-.131.274c-.056.118-.112.249-.174.392l-.156.368c-.473-.062-.859-.1-1.165-.124s-.585-.031-.859-.031a8.158,8.158,0,0,0-1.676.175,4.836,4.836,0,0,0-1.377.51,2,2,0,0,0-.8.741.551.551,0,0,0-.006.635,1.313,1.313,0,0,0,.692.411,5.178,5.178,0,0,0,1.345.143c.311,0,.648-.012,1.028-.037S1156.086,3755.507,1156.672,3755.432Zm2.641,1.084a35.256,35.256,0,0,0,2.267-3.475l-2.8.037.23-.361c.118-.193.249-.4.38-.629,1.227,0,2.666.006,4.3.006l1.613-.006h2.41l-.212.318c-.112.168-.2.312-.268.424s-.112.193-.143.249q-1.373-.038-2.28-.037h-.454c-.268.386-.511.741-.723,1.059-.3.467-.579.916-.841,1.358s-.467.791-.611,1.059c-.71-.006-1.165-.006-1.376-.006C1160.627,3756.51,1160.128,3756.51,1159.313,3756.516Zm6.471,0c.286-.38.542-.722.754-1.028s.442-.66.691-1.065.511-.822.772-1.271.455-.8.6-1.065c.535.006.978.006,1.308.006.349,0,.779-.006,1.277-.012s1-.018,1.47-.018c.554,0,1.04.012,1.464.037a5.217,5.217,0,0,1,.841.094,2.811,2.811,0,0,1,.579.175.979.979,0,0,1,.33.23.459.459,0,0,1,.125.292.671.671,0,0,1-.1.368,1.418,1.418,0,0,1-.33.405,2.2,2.2,0,0,1-.542.354,4,4,0,0,1-.754.293c-.281.081-.666.162-1.146.249l.118.411c.031.112.075.231.119.349l.355.953c.019.044.044.125.081.243-.716-.006-1.2-.006-1.445-.006-.311,0-.822,0-1.538.006-.006-.112-.019-.324-.037-.622a2.231,2.231,0,0,0-.031-.3c-.025-.156-.062-.368-.112-.648l-.181-.916c.224.019.448.031.679.031a5.905,5.905,0,0,0,.9-.068,2.441,2.441,0,0,0,.71-.225.946.946,0,0,0,.368-.312.2.2,0,0,0-.019-.249.736.736,0,0,0-.392-.156,5.87,5.87,0,0,0-.959-.049h-.479c-.162.006-.349.006-.573.012-.293.442-.635.985-1.021,1.62s-.754,1.264-1.1,1.881c-.723-.006-1.19-.006-1.408-.006C1166.9,3756.51,1166.444,3756.51,1165.784,3756.516Zm9.38,0q1.785-2.607,2.542-4.011l.224-.418c.754,0,1.258.006,1.513.006.119,0,.585-.006,1.408-.006q-.514.728-.935,1.383-.579.907-1.046,1.7t-.766,1.345l-1.333-.006C1176.51,3756.51,1175.974,3756.51,1175.164,3756.516Zm12.812-1.084c-.118.131-.28.312-.479.536s-.336.405-.436.529c-.965.069-1.813.107-2.541.107a12.336,12.336,0,0,1-1.894-.137,4.925,4.925,0,0,1-1.433-.43,1.04,1.04,0,0,1-.535-1.613,3.049,3.049,0,0,1,1.009-1.059,6.354,6.354,0,0,1,1.682-.779,11.387,11.387,0,0,1,2.049-.449,16.028,16.028,0,0,1,2.105-.137c.642,0,1.414.043,2.317.125l-.137.274c-.056.118-.112.249-.174.392l-.149.368c-.474-.062-.866-.1-1.165-.124s-.592-.031-.86-.031a8.066,8.066,0,0,0-1.675.175,4.95,4.95,0,0,0-1.383.51,2.087,2.087,0,0,0-.8.741.573.573,0,0,0-.006.635,1.359,1.359,0,0,0,.7.411,5.112,5.112,0,0,0,1.345.143c.305,0,.648-.012,1.021-.037S1187.391,3755.507,1187.976,3755.432Zm5.568,1.084c.386-.51.685-.928.909-1.252.4-.586.791-1.171,1.146-1.75s.642-1.059.841-1.427c.592,0,1.109.006,1.563.006.312,0,.754-.006,1.333-.006l-.791,1.171-1.183,1.837-.268.455c.741.006,1.227.006,1.451.006,1.14,0,2.012-.006,2.6-.018l-.673.978c-1.14-.006-2.224-.006-3.258-.006C1195.824,3756.51,1194.6,3756.51,1193.545,3756.516Zm7.811,0c.386-.51.691-.928.909-1.252.411-.586.791-1.171,1.152-1.75s.635-1.059.835-1.427c.592,0,1.115.006,1.57.006.305,0,.754-.006,1.333-.006l-.791,1.171-1.19,1.837-.268.455c.741.006,1.227.006,1.457.006,1.14,0,2.005-.006,2.6-.018l-.673.978c-1.14-.006-2.224-.006-3.258-.006Q1202.934,3756.51,1201.355,3756.516Z" transform="translate(-1116.005 -3728.631)" fill-rule="evenodd"/>
      <path id="Path_368" data-name="Path 368" d="M33.427,19.377a6.081,6.081,0,0,1-.542-.448,6.532,6.532,0,0,1-1.8-2.878c-.031-.093-.056-.187-.081-.28q-1.355,2.663-2.678,5.338l-.349.7H19.662l-.012-1.165h-1.2l-.025-2.186-1.7,3.351H8.382l-.031-1.165H7.173l-.031-1.221c-.069-2.871-.143-5.743-.206-8.614L6.731,2.192,6.7,1.021l1.183-.1c2.28-.2,4.566-.355,6.845-.554L16.118.249l-.012,1.277,1.221-.106-.019,1.85L18.64.8h6.552L25.18,1.968H26.4l-.012,1.3L27.908.455l.835.075c2.111.187,4.235.044,6.353.23l1.912.174-.554,1.009,1.763.162L37.3,3.768Q36.61,5.03,35.937,6.291a13.745,13.745,0,0,1,4.254-1.457c3.008-.5,6.347,0,8.514,2.3.112.118.224.249.33.374a7.993,7.993,0,0,1,.878.791c.093.1.181.206.268.305a.4.4,0,0,1,.05-.056,11.715,11.715,0,0,1,7.026-3.712c3.015-.5,6.347,0,8.514,2.3.118.118.224.249.33.374a7,7,0,0,1,.878.791c.137.149.268.3.392.455L69.378.486,78.5,0l-.318,1.252,1.526-.081-.99,3.905,6.976.237L86.83.642l9.106-.48-.3,1.246,1.507-.081-1.42,5.855a13.3,13.3,0,0,1,5.282-2.1c3.015-.5,6.347,0,8.514,2.3.044.044.087.093.131.137l-.23-1.619,8.639-1.233.081,1.327.86-.125.436-.779,8.639.81-.592,1,1.8.168-18.1,30.725-51.3.044,2.759,2.174-.318-.031,1.526,1.2L2.5,34.917c-.941-.093-1.408-.642-1.426-1.2C-.687,33.379-.481,31.3,1.425,31.3l35.521.162-.735-.461h.648L35,29.835l69.666-.069,5.967-9.735-.972.548a16.4,16.4,0,0,1-5.431,1.813,14.942,14.942,0,0,1-5-.019,8.519,8.519,0,0,1-4.323-2.031,6.478,6.478,0,0,1-.666-.71c-.187-.143-.367-.293-.542-.455a6.361,6.361,0,0,1-.71-.772l-.822,3.388-9.112.486.125-.5-6.833.592-.436-1.239-.772.069-.193-.542-.181.978-9.162.486.305-1.252-1.233.069a16.918,16.918,0,0,1-4.2,1.2,14.943,14.943,0,0,1-5-.019,8.519,8.519,0,0,1-4.323-2.031,6.014,6.014,0,0,1-.666-.716,6.084,6.084,0,0,1-.542-.448,6.545,6.545,0,0,1-1.806-2.878,5.526,5.526,0,0,1-.218-1.943l-.673.343,2.616,5.3-1.034.579a16.349,16.349,0,0,1-5.431,1.813,14.943,14.943,0,0,1-5-.019,8.543,8.543,0,0,1-4.323-2.031A6.578,6.578,0,0,1,33.427,19.377Zm77.253.585.61-1-.791-5.518L108.082,14.7ZM66.22,13.472l-1.887.978L65.442,16.7Zm17.8-1.258L82.8,13.641l.48,1.619Z" transform="translate(0.133)" fill-rule="evenodd"/>
      <path id="Path_369" data-name="Path 369" d="M148.105,147.838l-4.13,8.153h-7.063l-.006-.442q-.112-4.307-.212-8.614t-.2-8.614l-.012-.424.43-.037c2.28-.193,4.559-.355,6.839-.548l.5-.044-.087,7.73,3.912-7.256h5.251L153.25,145l4.073-7.555.3.025c2.111.193,4.242.05,6.353.237l.691.062-.33.6c-1.594,2.9-3.1,5.836-4.628,8.764-1.489,2.853-2.934,5.73-4.366,8.608l-.125.255h-7.013Zm36.948,24.179,3.887,3.064-58.611-5.973c-.978-.106-.9-.866.05-.86l38.972.181-2.628-1.651,67.362-.075,7-11.423-1.8-12.563,6.976-1,.274,4.472,2.311-4.117,6.851.642-17.234,29.249ZM230.6,151.488c.137.006.268,0,.392,0a5.868,5.868,0,0,0,1.607-.237,8.8,8.8,0,0,0,1.713-.623l.243-.125.629-.311,2.2,4.46-.374.212a15.555,15.555,0,0,1-5.157,1.719,14.133,14.133,0,0,1-4.721-.012,7.81,7.81,0,0,1-3.918-1.825,5.79,5.79,0,0,1-1.588-2.529,5.952,5.952,0,0,1,.112-3.332,10.353,10.353,0,0,1,1.831-3.451,10.963,10.963,0,0,1,6.527-3.419c2.741-.461,5.817-.037,7.786,2.055a5.8,5.8,0,0,1,1.377,2.541l.087.349Zm-11.33,4.522-7.424.4,4.584-18.854,7.424-.392Zm-16.537-4.9-.9,4.746-7.443.392L198.98,137.4l7.431-.4-2.28,8.95,3.407-3.936,7.381.255-5.269,6.16,2.2,7.449-7.2.623Zm-15.883.131c.137.006.268,0,.392,0a5.867,5.867,0,0,0,1.607-.237,8.6,8.6,0,0,0,1.707-.623l.249-.131.629-.305,2.192,4.46-.367.212a15.556,15.556,0,0,1-5.157,1.719,14.132,14.132,0,0,1-4.721-.012,7.767,7.767,0,0,1-3.918-1.831,5.735,5.735,0,0,1-1.588-2.523,5.9,5.9,0,0,1,.112-3.332,10.354,10.354,0,0,1,1.831-3.451,10.963,10.963,0,0,1,6.528-3.419c2.734-.461,5.811-.037,7.786,2.055a5.8,5.8,0,0,1,1.376,2.541l.087.349Zm-17.072,0c.137.006.274,0,.392,0a5.876,5.876,0,0,0,1.613-.237,8.9,8.9,0,0,0,1.707-.623l.249-.131.623-.305,2.2,4.46-.374.212a15.509,15.509,0,0,1-5.157,1.719,14.133,14.133,0,0,1-4.721-.012,7.791,7.791,0,0,1-3.918-1.831,5.667,5.667,0,0,1-1.582-2.523,5.841,5.841,0,0,1,.112-3.332,10.227,10.227,0,0,1,1.825-3.451,10.963,10.963,0,0,1,6.528-3.419c2.741-.461,5.817-.037,7.792,2.055a5.789,5.789,0,0,1,1.37,2.541l.087.349ZM231.717,147a1.154,1.154,0,0,0-.262-.068,6.262,6.262,0,0,0-.766-.081,2.779,2.779,0,0,0-1.651.5,2.147,2.147,0,0,0-.872,1.3,1.365,1.365,0,0,0-.037.23Zm-43.749-.249a1.153,1.153,0,0,0-.262-.068,6.255,6.255,0,0,0-.766-.081,2.779,2.779,0,0,0-1.651.5,2.151,2.151,0,0,0-.872,1.289,1.558,1.558,0,0,0-.037.237Zm-17.072,0a1.022,1.022,0,0,0-.255-.068,6.523,6.523,0,0,0-.766-.081,2.766,2.766,0,0,0-1.651.5,2.188,2.188,0,0,0-.878,1.289,1.03,1.03,0,0,0-.031.237Z" transform="translate(-128.821 -136.147)" fill="#fff" fill-rule="evenodd"/>
      <path id="Path_370" data-name="Path 370" d="M352.123,215.666c-1.576,2.871-3.133,5.9-4.628,8.77s-2.946,5.743-4.372,8.614h-6.272l-.125-9.561-4.84,9.561h-6.334c-.068-2.871-.143-5.743-.206-8.614s-.137-5.743-.206-8.614c2.13-.181,4.7-.361,6.845-.548l-.1,9.081,4.659-8.651h4.516l-.093,8.651,4.808-8.926C347.813,215.617,350.081,215.486,352.123,215.666Zm91.012,4.952-16.742,28.415-54.444.05,3.681,2.909L319,246.218l40.124.181-2.641-1.657,66.047-.069,7.219-11.778-1.756-12.276,6.029-.866.343,5.531,2.927-5.213Zm-16.126,3.619-9.486,4.914.766.224a4.761,4.761,0,0,0,.9.081,6.478,6.478,0,0,0,1.732-.255,11.6,11.6,0,0,0,1.8-.66l.243-.125.206-.1,1.813,3.669c-4.684,2.628-13.055,2.971-14.718-2.386-.548-1.75.224-4.323,1.856-6.378,2.585-3.239,10.1-5.07,13.628-1.333A5.391,5.391,0,0,1,427.009,224.237Zm-6.278.355a1.523,1.523,0,0,0-1.015-.592,6.89,6.89,0,0,0-.835-.093,3.179,3.179,0,0,0-1.918.6,2.608,2.608,0,0,0-1.053,1.551,1.7,1.7,0,0,0-.044.318,1.372,1.372,0,0,1-.031.268l.031.5Zm-13.628,8.5-6.472.343,4.354-17.938,6.471-.343Zm-7.655-.1-6.285.542-2.373-6.658-1.14,6.054-6.471.349,4.354-17.938L394,215l-2.6,10.215,4.528-5.232,6.222.218-4.821,5.637Zm-16.188-9.006-9.486,4.914.766.224a5.335,5.335,0,0,0,.9.075,6.494,6.494,0,0,0,1.732-.249,12.276,12.276,0,0,0,1.8-.66l.243-.125.206-.1,1.806,3.669c-4.678,2.628-13.049,2.971-14.718-2.392-.542-1.744.23-4.316,1.862-6.372,2.585-3.239,10.1-5.07,13.628-1.333A5.392,5.392,0,0,1,383.26,223.988Zm-6.278.355a1.556,1.556,0,0,0-1.015-.6,7.922,7.922,0,0,0-.835-.087,3.18,3.18,0,0,0-1.918.6,2.581,2.581,0,0,0-1.053,1.551,1.7,1.7,0,0,0-.044.318,2.138,2.138,0,0,1-.031.268l.025.5Zm-10.794-.355L356.7,228.9l.772.224a5.208,5.208,0,0,0,.891.075,6.46,6.46,0,0,0,1.731-.249,12.272,12.272,0,0,0,1.8-.66l.243-.125.206-.1,1.812,3.669c-4.684,2.628-13.049,2.971-14.718-2.392-.548-1.744.23-4.316,1.862-6.372,2.579-3.239,10.1-5.07,13.622-1.333A5.328,5.328,0,0,1,366.187,223.988Zm-6.278.355a1.541,1.541,0,0,0-1.015-.6,7.857,7.857,0,0,0-.828-.087,3.211,3.211,0,0,0-1.925.6,2.572,2.572,0,0,0-1.046,1.551,1.7,1.7,0,0,0-.05.318,1.019,1.019,0,0,1-.031.268l.031.5Z" transform="translate(-317.012 -213.661)" fill="#ed3240" fill-rule="evenodd"/>
    </g>
  </g>
</svg>
